solid ASCII
  facet normal 1.000000e+00 0.000000e+00 0.000000e+00
    outer loop
      vertex   -1.888082e+01 -4.434625e+00 -1.437500e+02
      vertex   -1.888082e+01 1.156538e+01 -1.437500e+02
      vertex   -1.888082e+01 -4.434625e+00 -1.317500e+02
    endloop
  endfacet
  facet normal 1.000000e+00 -0.000000e+00 0.000000e+00
    outer loop
      vertex   -1.888082e+01 -4.434625e+00 -1.317500e+02
      vertex   -1.888082e+01 1.156538e+01 -1.437500e+02
      vertex   -1.888082e+01 1.156538e+01 -1.317500e+02
    endloop
  endfacet
  facet normal 1.776357e-16 -1.000000e+00 0.000000e+00
    outer loop
      vertex   -2.888082e+01 -4.434625e+00 -1.437500e+02
      vertex   -1.888082e+01 -4.434625e+00 -1.437500e+02
      vertex   -2.888082e+01 -4.434625e+00 -1.317500e+02
    endloop
  endfacet
  facet normal 1.776357e-16 -1.000000e+00 0.000000e+00
    outer loop
      vertex   -2.888082e+01 -4.434625e+00 -1.317500e+02
      vertex   -1.888082e+01 -4.434625e+00 -1.437500e+02
      vertex   -1.888082e+01 -4.434625e+00 -1.317500e+02
    endloop
  endfacet
  facet normal -1.000000e+00 0.000000e+00 0.000000e+00
    outer loop
      vertex   -2.038082e+01 1.156538e+01 -1.437500e+02
      vertex   -2.038082e+01 -2.934625e+00 -1.437500e+02
      vertex   -2.038082e+01 1.156538e+01 -1.317500e+02
    endloop
  endfacet
  facet normal -1.000000e+00 -0.000000e+00 0.000000e+00
    outer loop
      vertex   -2.038082e+01 1.156538e+01 -1.317500e+02
      vertex   -2.038082e+01 -2.934625e+00 -1.437500e+02
      vertex   -2.038082e+01 -2.934625e+00 -1.317500e+02
    endloop
  endfacet
  facet normal -1.044916e-16 1.000000e+00 0.000000e+00
    outer loop
      vertex   -2.038082e+01 -2.934625e+00 -1.437500e+02
      vertex   -2.888082e+01 -2.934625e+00 -1.437500e+02
      vertex   -2.038082e+01 -2.934625e+00 -1.317500e+02
    endloop
  endfacet
  facet normal -1.044916e-16 1.000000e+00 0.000000e+00
    outer loop
      vertex   -2.038082e+01 -2.934625e+00 -1.317500e+02
      vertex   -2.888082e+01 -2.934625e+00 -1.437500e+02
      vertex   -2.888082e+01 -2.934625e+00 -1.317500e+02
    endloop
  endfacet
  facet normal 0.000000e+00 0.000000e+00 -1.000000e+00
    outer loop
      vertex   -2.038082e+01 1.156538e+01 -1.437500e+02
      vertex   -1.888082e+01 1.156538e+01 -1.437500e+02
      vertex   -2.038082e+01 -2.934625e+00 -1.437500e+02
    endloop
  endfacet
  facet normal 0.000000e+00 0.000000e+00 -1.000000e+00
    outer loop
      vertex   -2.038082e+01 -2.934625e+00 -1.437500e+02
      vertex   -1.888082e+01 1.156538e+01 -1.437500e+02
      vertex   -1.888082e+01 -4.434625e+00 -1.437500e+02
    endloop
  endfacet
  facet normal 0.000000e+00 -0.000000e+00 -1.000000e+00
    outer loop
      vertex   -2.038082e+01 -2.934625e+00 -1.437500e+02
      vertex   -1.888082e+01 -4.434625e+00 -1.437500e+02
      vertex   -2.888082e+01 -4.434625e+00 -1.437500e+02
    endloop
  endfacet
  facet normal 0.000000e+00 0.000000e+00 -1.000000e+00
    outer loop
      vertex   -2.888082e+01 -4.434625e+00 -1.437500e+02
      vertex   -2.888082e+01 -2.934625e+00 -1.437500e+02
      vertex   -2.038082e+01 -2.934625e+00 -1.437500e+02
    endloop
  endfacet
  facet normal 0.000000e+00 1.000000e+00 0.000000e+00
    outer loop
      vertex   -2.038082e+01 1.156538e+01 -1.437500e+02
      vertex   -2.038082e+01 1.156538e+01 -1.317500e+02
      vertex   -1.888082e+01 1.156538e+01 -1.437500e+02
    endloop
  endfacet
  facet normal 0.000000e+00 1.000000e+00 -0.000000e+00
    outer loop
      vertex   -1.888082e+01 1.156538e+01 -1.437500e+02
      vertex   -2.038082e+01 1.156538e+01 -1.317500e+02
      vertex   -1.888082e+01 1.156538e+01 -1.317500e+02
    endloop
  endfacet
  facet normal -0.000000e+00 0.000000e+00 1.000000e+00
    outer loop
      vertex   -2.038082e+01 1.156538e+01 -1.317500e+02
      vertex   -2.038082e+01 -2.934625e+00 -1.317500e+02
      vertex   -1.888082e+01 1.156538e+01 -1.317500e+02
    endloop
  endfacet
  facet normal 0.000000e+00 0.000000e+00 1.000000e+00
    outer loop
      vertex   -1.888082e+01 1.156538e+01 -1.317500e+02
      vertex   -2.038082e+01 -2.934625e+00 -1.317500e+02
      vertex   -1.888082e+01 -4.434625e+00 -1.317500e+02
    endloop
  endfacet
  facet normal 0.000000e+00 0.000000e+00 1.000000e+00
    outer loop
      vertex   -1.888082e+01 -4.434625e+00 -1.317500e+02
      vertex   -2.038082e+01 -2.934625e+00 -1.317500e+02
      vertex   -2.888082e+01 -4.434625e+00 -1.317500e+02
    endloop
  endfacet
  facet normal 0.000000e+00 0.000000e+00 1.000000e+00
    outer loop
      vertex   -2.888082e+01 -4.434625e+00 -1.317500e+02
      vertex   -2.038082e+01 -2.934625e+00 -1.317500e+02
      vertex   -2.888082e+01 -2.934625e+00 -1.317500e+02
    endloop
  endfacet
  facet normal -1.000000e+00 -0.000000e+00 -0.000000e+00
    outer loop
      vertex   -2.888082e+01 -2.934625e+00 -1.317500e+02
      vertex   -2.888082e+01 -2.934625e+00 -1.437500e+02
      vertex   -2.888082e+01 -4.434625e+00 -1.317500e+02
    endloop
  endfacet
  facet normal -1.000000e+00 0.000000e+00 0.000000e+00
    outer loop
      vertex   -2.888082e+01 -4.434625e+00 -1.317500e+02
      vertex   -2.888082e+01 -2.934625e+00 -1.437500e+02
      vertex   -2.888082e+01 -4.434625e+00 -1.437500e+02
    endloop
  endfacet
endsolid
